<?xml version="1.0" encoding="UTF-8" standalone="no"?>
<!-- Generator: Adobe Illustrator 19.0.0, SVG Export Plug-In . SVG Version: 6.00 Build 0)  -->

<svg
   xmlns:dc="http://purl.org/dc/elements/1.1/"
   xmlns:cc="http://creativecommons.org/ns#"
   xmlns:rdf="http://www.w3.org/1999/02/22-rdf-syntax-ns#"
   xmlns:svg="http://www.w3.org/2000/svg"
   xmlns="http://www.w3.org/2000/svg"
   xmlns:sodipodi="http://sodipodi.sourceforge.net/DTD/sodipodi-0.dtd"
   xmlns:inkscape="http://www.inkscape.org/namespaces/inkscape"
   version="1.1"
   id="Capa_1"
   x="0px"
   y="0px"
   viewBox="0 0 486.392 486.392"
   style="enable-background:new 0 0 486.392 486.392;"
   xml:space="preserve"
   sodipodi:docname="linkedin.svg"
   inkscape:version="0.92.2 (5c3e80d, 2017-08-06)"><metadata
     id="metadata3931"><rdf:RDF><cc:Work
         rdf:about=""><dc:format>image/svg+xml</dc:format><dc:type
           rdf:resource="http://purl.org/dc/dcmitype/StillImage" /></cc:Work></rdf:RDF></metadata><defs
     id="defs3929" /><sodipodi:namedview
     pagecolor="#ffffff"
     bordercolor="#666666"
     borderopacity="1"
     objecttolerance="10"
     gridtolerance="10"
     guidetolerance="10"
     inkscape:pageopacity="0"
     inkscape:pageshadow="2"
     inkscape:window-width="1920"
     inkscape:window-height="1001"
     id="namedview3927"
     showgrid="false"
     inkscape:zoom="1.8318558"
     inkscape:cx="65.780284"
     inkscape:cy="243.196"
     inkscape:window-x="-9"
     inkscape:window-y="-9"
     inkscape:window-maximized="1"
     inkscape:current-layer="Capa_1" /><g
     id="g3896" /><g
     id="g3898" /><g
     id="g3900" /><g
     id="g3902" /><g
     id="g3904" /><g
     id="g3906" /><g
     id="g3908" /><g
     id="g3910" /><g
     id="g3912" /><g
     id="g3914" /><g
     id="g3916" /><g
     id="g3918" /><g
     id="g3920" /><g
     id="g3922" /><g
     id="g3924" /><g
     id="g164"
     style="fill:#ffffff"><g
       id="g159"
       style="fill:#ffffff"><g
         id="g155"
         style="fill:#ffffff"><path
           inkscape:connector-curvature="0"
           id="path3933"
           d="M 227.82159,486.76171 C 151.14499,481.53789 81.854855,441.09808 40.098795,377.20101 18.848275,344.68248 6.4573748,309.97812 1.7454048,269.78106 c -1.20273,-10.26029 -1.377,-38.03128 -0.30317,-48.31166 1.93315,-18.50703 5.49453,-35.62069 10.8489502,-52.13293 C 38.674955,87.972841 107.01494,25.720456 190.208,7.2681465 c 17.17447,-3.8093174 29.23665,-5.2333564 47.71263,-5.6328734 24.43173,-0.5283 44.83626,1.822996 67.65322,7.7959579 49.69203,13.008238 95.43067,42.85538 127.50898,83.20706 29.62402,37.264439 47.34452,80.959019 52.24792,128.831109 1.05195,10.27015 0.86581,38.10522 -0.32305,48.31166 -3.53579,30.35484 -10.93048,55.79046 -23.80551,81.88418 -36.99067,74.96871 -109.53343,125.44955 -192.98441,134.29343 -9.57456,1.01469 -31.02928,1.44118 -40.39619,0.80304 z m -45.0363,-231.1739 V 148.86543 H 152.2152 121.64511 v 106.72238 106.72237 h 30.57009 30.57009 z m 91.16438,40.45168 V 229.7688 l 2.53679,-5.06749 c 3.50682,-7.00521 8.94399,-12.52226 15.47773,-15.7051 6.93603,-3.37882 10.46642,-4.14223 19.10631,-4.13155 6.37675,0.008 7.79482,0.17711 10.5261,1.25612 6.23849,2.46455 9.57042,6.29907 11.67668,13.43799 0.89822,3.0444 0.9786,8.19303 1.13997,73.01339 l 0.17361,69.73802 h 30.57292 30.57292 l -0.19569,-72.19455 c -0.21119,-77.9123 -0.1419,-75.96323 -3.15926,-88.87565 -5.2925,-22.64871 -16.16244,-37.8667 -33.07572,-46.30626 -12.11641,-6.04597 -27.30812,-7.35074 -44.68322,-3.83769 -11.94836,2.41583 -26.47946,8.40748 -36.16551,14.91224 l -4.50363,3.02446 v -10.08365 -10.08365 h -30.57009 -30.57009 v 106.72238 106.72237 h 30.57009 30.57009 z M 162.97755,134.92307 c 20.40157,-6.84858 26.49838,-32.33899 11.35649,-47.480879 -8.93011,-8.9301 -22.54061,-10.95851 -33.80477,-5.03802 -13.60353,7.15006 -18.87879,24.200039 -11.94921,38.620639 1.91349,3.98203 8.21959,10.26788 12.27579,12.23637 7.07915,3.43554 15.05349,4.03461 22.1217,1.66189 z"
           style="fill:#ffffff;stroke-width:0.5458945;fill-opacity:1" /></g></g></g></svg>