<?xml version="1.0" encoding="UTF-8" standalone="no"?>
<!-- Generator: Adobe Illustrator 16.0.0, SVG Export Plug-In . SVG Version: 6.00 Build 0)  -->

<svg
   xmlns:dc="http://purl.org/dc/elements/1.1/"
   xmlns:cc="http://creativecommons.org/ns#"
   xmlns:rdf="http://www.w3.org/1999/02/22-rdf-syntax-ns#"
   xmlns:svg="http://www.w3.org/2000/svg"
   xmlns="http://www.w3.org/2000/svg"
   xmlns:sodipodi="http://sodipodi.sourceforge.net/DTD/sodipodi-0.dtd"
   xmlns:inkscape="http://www.inkscape.org/namespaces/inkscape"
   version="1.1"
   id="Capa_1"
   x="0px"
   y="0px"
   width="49.652px"
   height="49.652px"
   viewBox="0 0 49.652 49.652"
   style="enable-background:new 0 0 49.652 49.652;"
   xml:space="preserve"
   sodipodi:docname="facebook.svg"
   inkscape:version="0.92.2 (5c3e80d, 2017-08-06)"><metadata
     id="metadata899"><rdf:RDF><cc:Work
         rdf:about=""><dc:format>image/svg+xml</dc:format><dc:type
           rdf:resource="http://purl.org/dc/dcmitype/StillImage" /></cc:Work></rdf:RDF></metadata><defs
     id="defs897" /><sodipodi:namedview
     pagecolor="#ffffff"
     bordercolor="#666666"
     borderopacity="1"
     objecttolerance="10"
     gridtolerance="10"
     guidetolerance="10"
     inkscape:pageopacity="0"
     inkscape:pageshadow="2"
     inkscape:window-width="1920"
     inkscape:window-height="1058"
     id="namedview895"
     showgrid="false"
     inkscape:zoom="17.944896"
     inkscape:cx="15.7705"
     inkscape:cy="24.826"
     inkscape:window-x="1912"
     inkscape:window-y="-8"
     inkscape:window-maximized="1"
     inkscape:current-layer="Capa_1" /><g
     id="g864" /><g
     id="g866" /><g
     id="g868" /><g
     id="g870" /><g
     id="g872" /><g
     id="g874" /><g
     id="g876" /><g
     id="g878" /><g
     id="g880" /><g
     id="g882" /><g
     id="g884" /><g
     id="g886" /><g
     id="g888" /><g
     id="g890" /><g
     id="g892" /><path
     style="fill:#fffffe;fill-opacity:1;stroke-width:0.05572615"
     d="M 23.237805,49.629432 C 16.731304,49.221655 10.54323,46.170717 6.209756,41.234007 3.53909,38.191576 1.6875762,34.642139 0.7254555,30.720355 0.0292288,27.882404 -0.148365,24.679657 0.2277317,21.744344 0.6377797,18.544052 1.6912688,15.39692 3.288546,12.600646 3.761451,11.772754 4.802563,10.237891 5.391347,9.5005838 7.057154,7.4145711 8.9046063,5.7208828 11.117367,4.2511429 12.273202,3.4834253 12.712789,3.2259088 13.7755,2.6939723 c 2.59688,-1.2998597 5.340861,-2.11030945 8.364536,-2.47051155 1.160422,-0.138238 4.211506,-0.138238 5.371928,0 3.937083,0.4690138 7.394259,1.69197015 10.657611,3.77006905 3.716265,2.3665141 6.847675,5.8445097 8.839398,9.8177462 2.359351,4.706608 3.146557,10.072864 2.246906,15.316783 -0.94632,5.515944 -3.829822,10.64255 -8.088743,14.381057 -4.946734,4.342273 -11.361334,6.531947 -17.929331,6.120316 z M 26.99932,32.973163 V 25.78449 h 2.003617 2.003615 l 0.02996,-0.18111 c 0.01648,-0.09961 0.130207,-1.184181 0.252727,-2.410156 0.12252,-1.225975 0.23493,-2.298007 0.2498,-2.382293 l 0.02704,-0.153247 h -2.28338 -2.283379 v -1.651388 c 0,-1.871573 0.0187,-1.991579 0.364226,-2.337628 0.334753,-0.335258 0.486031,-0.357624 2.418895,-0.357624 h 1.674971 v -2.473683 -2.473683 l -1.142121,-0.04079 c -1.662507,-0.05937 -4.125841,-0.0051 -4.711696,0.10379 -2.194095,0.407827 -3.607787,1.610463 -4.28656,3.646601 -0.299815,0.899364 -0.342954,1.304827 -0.376263,3.536465 l -0.03057,2.047936 H 19.49667 18.083136 v 2.563403 2.563403 h 1.421017 1.421017 v 7.188673 7.188674 h 3.037075 3.037075 z"
     id="path903"
     inkscape:connector-curvature="0" /></svg>